<svg width="79" height="84" viewBox="0 0 79 84" fill="none" xmlns="http://www.w3.org/2000/svg">
<path id="Vector" d="M58.7386 57.7662C59.5012 57.3872 59.983 56.6065 59.9803 55.7537V43.2212C59.9803 42.6136 59.6893 42.0905 59.1733 41.7714C58.6573 41.4522 58.0608 41.4253 57.5183 41.697L50.4364 45.244C49.8456 45.5399 49.4961 46.1065 49.4961 46.7684V58.7542C49.4961 59.5344 49.8988 60.2588 50.5612 60.6688C51.2234 61.0786 52.0508 61.1161 52.7475 60.7669L58.7386 57.7662ZM31.5225 38.5449C31.5348 37.7915 31.1819 37.2922 30.5824 36.9924L20.5052 31.9453C19.9624 31.6738 19.3659 31.7 18.8499 32.0197C18.3338 32.3393 18.0433 32.8611 18.0433 33.4692V43.0013C18.0428 43.7806 18.446 44.5052 19.1084 44.9151C19.7706 45.3251 20.598 45.3626 21.2942 45.0134L30.2813 40.5126C31.0312 40.1405 31.5103 39.2981 31.5225 38.5449ZM32.8219 23.8609C30.516 22.7064 28.0366 22.7064 25.7312 23.8609L22.0995 25.6793C21.4107 26.0241 21.0028 26.6859 21.0028 27.4572C21.0028 28.2285 21.4112 28.8899 22.0995 29.2347L45.2014 40.8059C47.5068 41.9606 49.9874 41.9603 52.2925 40.8059L56.9363 38.4798C57.4282 38.2336 57.7201 37.7607 57.7201 37.2094C57.7201 36.6583 57.4287 36.1848 56.9363 35.9387L32.8219 23.8609ZM48.6473 2.64715L58.5174 8.32649L68.3145 13.9642C74.4866 17.5157 78.0233 23.6367 78.0233 30.767V41.9999V53.2329C78.0233 60.3632 74.4866 66.4843 68.3145 70.0358L58.5174 75.6734L48.6473 81.3529C42.514 84.8824 35.5093 84.8824 29.3758 81.3529L19.5059 75.6734L9.70864 70.0358C3.53667 66.4843 0 60.3633 0 53.2329V41.9999V30.767C0 23.6369 3.53667 17.5157 9.70864 13.9642L19.5059 8.32649L29.3758 2.64715C35.5093 -0.882383 42.514 -0.882383 48.6473 2.64715ZM45.4681 44.7497L39.477 41.7492C38.7803 41.4 37.9531 41.4373 37.2907 41.8473C36.6283 42.2571 36.2256 42.9815 36.2256 43.7617V55.7477C36.2256 56.4091 36.5751 56.9765 37.166 57.2719L44.248 60.8191C44.7904 61.0903 45.3869 61.0639 45.9029 60.7446C46.419 60.4254 46.71 59.9028 46.71 59.2947V46.7624C46.7124 45.9095 46.2308 45.1288 45.4681 44.7497Z" fill="#2B2A29"/>
</svg>
